<svg xmlns="http://www.w3.org/2000/svg" width="1024" height="1024" viewBox="0 0 256 256" version="1.1" class="injected-svg" data-src="https://storage.googleapis.com/illustroke-c1d67.appspot.com/27wx9WCRL7b5Dm7dQ3a2US9QSjk2/ryaajwnm8zrmb6hm9yy4wn-2.svg?GoogleAccessId=illustroke-c1d67%40appspot.gserviceaccount.com&amp;Expires=16447017600&amp;Signature=QXfqkd3zryzggcWDxQvyRxx60UDzLddIqvC%2FGFiESt8vNtUNEfDF%2BAYcx4OsEEpqkR98A0%2BIK8WwaDEkrWZg11FKyFtBd83v006bdJ6RDwFsj7a%2B2m54rjatzDXBqIjDV5MrTOQdbdE%2FaH8c7daQ0fXc6P3Nh1zwCzwb2ocVfNvt8OHK2F2ubar3zrgDQn%2F5%2Fbf3fnj2%2FZ%2F%2FKDzX9E%2B4SofCJUwQ1Z3AZEP%2Bbb3ZxnlXCRGJTw%2FK0YpdqAxNYIGBT%2FZBbdI2TOU8l6gg1WPya85ohVx75HFIYwuZjVVylVoVKCpQRrZdth7e5zCxOO%2FJ7HWwN9QDTDuiE9YkBi0mBQ%3D%3D" xmlns:xlink="http://www.w3.org/1999/xlink"><rect width="1024" height="1024" fill="#FFFFFF"/>
	<path d="M 86.397 81 L 88.947 85.500 85.724 86.555 C 83.374 87.324, 81.217 89.518, 77.766 94.651 C 75.124 98.582, 68.647 105.740, 63.107 110.852 C 50.638 122.358, 47.814 126.571, 45.550 137.049 C 44.124 143.649, 43.097 145.994, 40.250 149.145 C 38.308 151.294, 37.022 153.355, 37.391 153.725 C 37.968 154.301, 41.895 153.441, 48.144 151.368 C 50.070 150.729, 50.842 154.955, 51.890 171.866 C 52.524 182.108, 52.483 182.398, 50.076 184.630 C 47.843 186.701, 47.778 186.978, 49.382 187.593 C 50.354 187.966, 52.857 187.760, 54.944 187.135 C 57.692 186.312, 62.109 186.274, 70.967 186.997 C 83.572 188.027, 85 187.872, 85 185.476 C 85 183.525, 81.555 181.877, 76.720 181.516 L 72.644 181.212 72.366 168.856 C 72.212 162.060, 71.831 155.083, 71.517 153.352 C 71.129 151.207, 71.570 149.135, 72.901 146.852 C 75.143 143.004, 77.284 132.993, 79.020 118.239 C 79.684 112.595, 80.563 107.770, 80.973 107.517 C 81.383 107.263, 82.421 108.844, 83.279 111.029 C 84.943 115.265, 87.673 117.147, 89.012 114.980 C 89.458 114.259, 90.126 111.643, 90.498 109.168 C 90.869 106.692, 91.867 103.607, 92.715 102.312 C 93.994 100.360, 94.819 100.063, 97.542 100.574 C 101.199 101.260, 105 100.394, 105 98.874 C 105 98.328, 104.581 98.141, 104.069 98.457 C 102.097 99.676, 102.083 96.943, 104.028 90.644 C 105.142 87.040, 106.704 83.439, 107.501 82.642 C 108.765 81.378, 108.761 81.122, 107.474 80.629 C 105.734 79.961, 102.818 80.897, 103.451 81.920 C 103.858 82.579, 100.233 98.091, 99.500 98.831 C 98.603 99.735, 95.142 96.793, 95.624 95.537 C 96.366 93.604, 90.560 82.908, 86.842 79.360 L 83.846 76.500 86.397 81 M 141.408 84.500 C 140.507 85.875, 138.948 87, 137.944 87 C 136.940 87, 135.858 87.420, 135.541 87.934 C 135.223 88.448, 133.374 88.610, 131.431 88.295 C 128.484 87.817, 127.411 88.190, 124.950 90.548 C 121.343 94.004, 121.212 95.764, 124.500 96.589 C 125.875 96.934, 127 97.588, 127 98.041 C 127 99.173, 123.250 100.273, 122.009 99.506 C 121.454 99.163, 121 99.817, 121 100.960 C 121 102.724, 121.416 102.936, 123.750 102.363 C 126.596 101.665, 131.847 98.068, 131.945 96.750 C 131.975 96.338, 130.762 95.993, 129.250 95.985 C 123.758 95.954, 124.112 94.464, 130.062 92.563 C 133.327 91.519, 136.300 90.966, 136.667 91.334 C 137.034 91.701, 136.886 93.466, 136.336 95.257 C 135.787 97.047, 135.524 99.071, 135.752 99.756 C 136.372 101.617, 140.459 101.256, 142.343 99.173 C 143.913 97.439, 143.846 97.369, 140.998 97.787 C 138.457 98.160, 138 97.898, 138 96.068 C 138 93.185, 142.534 88.723, 144.767 89.407 C 145.720 89.700, 147.625 89.027, 149 87.913 L 151.500 85.888 147.250 86.532 C 142.722 87.218, 142.412 86.967, 144.035 83.934 C 145.595 81.020, 143.375 81.498, 141.408 84.500 M 83.304 91.669 C 81.764 93.687, 80.645 96.165, 80.817 97.176 C 80.995 98.227, 80.361 99.308, 79.336 99.701 C 78.350 100.080, 76.562 101.539, 75.362 102.945 C 74.163 104.350, 69.653 109.140, 65.341 113.590 C 61.028 118.039, 56.285 123.956, 54.801 126.738 L 52.102 131.796 54.551 133.636 C 57.570 135.903, 57.596 136.700, 54.750 139.905 C 52.857 142.037, 52.818 142.209, 54.500 140.991 C 57.847 138.567, 64.338 131.037, 67.306 126.135 L 70.113 121.500 69.457 126 C 69.096 128.475, 67.996 132.356, 67.013 134.624 C 65.374 138.402, 63.695 140.268, 55.763 147.132 L 53.026 149.500 54.144 156.819 L 55.262 164.137 57.700 159.819 C 59.040 157.443, 61.415 154.150, 62.976 152.500 C 70.028 145.046, 75.935 126.011, 76.236 109.765 C 76.351 103.593, 76.497 103.118, 77.647 105.189 C 78.883 107.417, 78.930 107.424, 78.965 105.405 C 79.009 102.799, 82.214 99.781, 84.664 100.038 C 88.748 100.466, 89.042 100.132, 88.431 95.750 C 87.991 92.592, 88.112 91.886, 88.904 93 C 89.490 93.825, 89.976 95.513, 89.985 96.750 C 89.993 97.987, 90.450 99, 91 99 C 92.857 99, 92.089 92.089, 90 90 C 87.261 87.261, 86.526 87.444, 83.304 91.669 M 110.655 91.841 C 104.393 98.254, 106.749 103.111, 114.368 99.496 C 118.364 97.599, 120.942 92.723, 119.318 90.132 C 117.478 87.195, 114.647 87.754, 110.655 91.841 M 112.200 92.200 C 111.007 93.393, 110.484 99, 111.566 99 C 113.855 99, 116 96.564, 116 93.965 C 116 90.853, 114.325 90.075, 112.200 92.200 M 84 106.941 C 84 110.092, 84.966 111.288, 86.621 110.184 C 88.739 108.771, 88.954 106.046, 87.029 105.015 C 84.259 103.533, 84 103.698, 84 106.941 M 58.604 130.336 C 59.647 131.767, 60.892 132.951, 61.372 132.969 C 62.613 133.013, 59.596 128.699, 58.018 128.173 C 57.201 127.900, 57.422 128.716, 58.604 130.336 M 55.674 133.118 C 56.839 134.283, 58.349 135.050, 59.030 134.823 C 60.712 134.263, 57.449 131, 55.206 131 C 53.819 131, 53.894 131.338, 55.674 133.118 M 61.778 159 C 59.915 161.872, 57.392 170.435, 56.474 177 L 55.845 181.500 62.029 181.156 L 68.213 180.812 67.506 174.208 C 67.117 170.575, 66.033 165.105, 65.099 162.052 L 63.399 156.500 61.778 159 M 100.392 184.496 C 101.432 185.283, 102.782 186.111, 103.392 186.335 C 105.511 187.115, 102.479 190.312, 96.429 193.677 C 93.168 195.491, 90.050 197.144, 89.500 197.350 C 88.950 197.557, 88.768 198.018, 89.095 198.375 C 89.808 199.151, 98.377 195.516, 102.252 192.794 C 106.587 189.749, 107.418 187.418, 105.023 185.023 C 103.910 183.910, 101.987 183.014, 100.750 183.032 C 98.583 183.062, 98.570 183.116, 100.392 184.496 M 88 184.800 C 88 185.240, 88.510 186.110, 89.133 186.733 C 91.226 188.826, 89.197 190.750, 81.995 193.502 C 77.488 195.224, 75.188 196.588, 75.784 197.184 C 77.167 198.567, 91.798 192.211, 92.528 189.910 C 93.263 187.596, 91.399 184, 89.465 184 C 88.659 184, 88 184.360, 88 184.800" stroke="none" fill="#000000" fill-rule="evenodd" fill-opacity="1"/>
</svg>